<svg width="640" height="500" viewBox="0 0 640 500" fill="none" xmlns="http://www.w3.org/2000/svg">
<rect width="640" height="500" rx="36" fill="#FFFDF8"/>
<circle cx="120" cy="94" r="60" fill="#16A34A" fill-opacity="0.12"/>
<circle cx="520" cy="108" r="70" fill="#F97316" fill-opacity="0.12"/>
<rect x="70" y="120" width="500" height="290" rx="32" fill="white" stroke="#EEDCCE"/>
<rect x="104" y="158" width="180" height="190" rx="26" fill="#FFF7F0" stroke="#F5D9C2"/>
<rect x="322" y="158" width="214" height="60" rx="18" fill="#F6F0EA"/>
<rect x="322" y="236" width="214" height="18" rx="9" fill="#EEE6DD"/>
<rect x="322" y="268" width="188" height="18" rx="9" fill="#EEE6DD"/>
<rect x="322" y="302" width="160" height="18" rx="9" fill="#EEE6DD"/>
<path d="M168 326C199 326 224 301 224 270C224 239 199 214 168 214C137 214 112 239 112 270C112 301 137 326 168 326Z" fill="#16A34A" fill-opacity="0.16"/>
<path d="M164 238C180 258 186 278 181 301C157 296 141 286 132 269C139 250 149 239 164 238Z" fill="#16A34A"/>
<path d="M158 250C169 270 174 286 174 302" stroke="#0D6B2D" stroke-width="4" stroke-linecap="round"/>
<rect x="104" y="430" width="432" height="16" rx="8" fill="#EFE7DE"/>
</svg>
